<svg width="11" height="11" viewBox="0 0 11 11" fill="none" xmlns="http://www.w3.org/2000/svg">
<path d="M6.17177 0.793213H5.06066V6.34877H6.17177V0.793213ZM8.8551 1.99877L8.06621 2.78766C8.94399 3.49321 9.5051 4.57655 9.5051 5.79321C9.5051 7.94321 7.76621 9.6821 5.61621 9.6821C3.46621 9.6821 1.72732 7.94321 1.72732 5.79321C1.72732 4.57655 2.28843 3.49321 3.16066 2.7821L2.37732 1.99877C1.29954 2.91544 0.616211 4.27099 0.616211 5.79321C0.616211 8.55432 2.8551 10.7932 5.61621 10.7932C8.37732 10.7932 10.6162 8.55432 10.6162 5.79321C10.6162 4.27099 9.93288 2.91544 8.8551 1.99877Z" fill="#111F4D" fill-opacity="0.5"/>
</svg>
