<svg width="140" height="80" viewBox="0 0 140 80" fill="none" xmlns="http://www.w3.org/2000/svg">
<path fill-rule="evenodd" clip-rule="evenodd" d="M0 10.0787V69.9213C0 75.4876 4.56185 80 10.1892 80H51.5564C54.2587 80 56.8504 78.9381 58.7612 77.048L63.074 72.7819C67.0532 68.8459 73.5046 68.8459 77.4837 72.7819L81.7965 77.048C83.7074 78.9381 86.299 80 89.0014 80H129.811C135.438 80 140 75.4876 140 69.9213V10.0787C140 4.51241 135.438 0 129.811 0H10.1892C4.56184 0 0 4.51241 0 10.0787ZM54.6614 39.7243C54.6614 48.8656 47.1697 56.276 37.9283 56.276C28.6869 56.276 21.1953 48.8656 21.1953 39.7243C21.1953 30.583 28.6869 23.1726 37.9283 23.1726C47.1697 23.1726 54.6614 30.583 54.6614 39.7243ZM101.514 56.2761C110.756 56.2761 118.247 48.8656 118.247 39.7244C118.247 30.5831 110.756 23.1726 101.514 23.1726C92.2727 23.1726 84.781 30.5831 84.781 39.7244C84.781 48.8656 92.2727 56.2761 101.514 56.2761Z" fill="black" fill-opacity="0.5"/>
</svg>
